<svg width="147" height="24" viewBox="0 0 147 24" fill="none" xmlns="http://www.w3.org/2000/svg">
<path d="M54.277 8.47101L54.12 7.53001L53.885 6.51001L53.571 5.49001L53.257 4.86301L52.865 4.23601L52.4 3.68601L51.929 3.21501L51.145 2.66601L50.361 2.19501L49.498 1.80301L48.086 1.33201L46.596 1.01801L45.179 0.784011L43.767 0.706011L42.355 0.627011L38.12 0.549011H32.394L30.825 0.784011L29.335 0.941011L27.845 1.25501L26.355 1.72601L25.414 2.11801L24.551 2.58901L23.688 3.21601L22.904 3.92201L22.198 4.70601L21.649 5.56901L21.178 6.51001L20.864 7.45101L20.629 8.47101L20.394 9.96101L20.316 11.451V12.078L20.238 13.49L20.316 14.902L20.473 15.843L20.708 16.784L21.022 17.725L21.414 18.352L21.885 18.979L22.356 19.528L22.905 19.999L23.689 20.548L24.552 21.019L25.415 21.411L26.827 21.803L28.317 22.117L29.807 22.274L31.297 22.352L32.787 22.43L37.023 22.508H41.259L42.749 22.43L44.239 22.352L45.729 22.195L47.219 21.881L48.631 21.41L49.494 21.018L50.357 20.547L51.141 19.998L51.69 19.527L52.161 18.978L52.632 18.429L53.024 17.802L53.495 16.861L53.809 15.841L54.044 14.821L54.201 13.331L54.279 11.841L54.357 11.214L54.435 9.80201L54.277 8.47101ZM47.3 10.903L47.218 12.549L47.061 14.196V14.274L46.826 15.374L46.434 16.474L46.199 17.023L45.885 17.572L45.571 18.043L45.179 18.435L45.101 18.513L44.552 18.905L43.925 19.297L43.376 19.611L42.669 19.849L41.728 20.006L40.787 20.084H36.787L33.728 20.006H32.787L31.924 19.928L31.061 19.771L30.512 19.614L29.885 19.379L29.336 19.065L28.865 18.673L28.787 18.595L28.395 18.203L28 17.726L27.686 17.177L27.451 16.628L27.216 15.844L27.059 15.06L26.981 14.276V12.549L27.059 10.902L27.216 9.33301V9.17701L27.451 8.00001L27.843 6.82301L28.235 6.27401L28.549 5.72501L28.941 5.25401L29.333 4.86201V4.70601L29.882 4.31401L30.509 4.00001L31.136 3.68601L31.842 3.45101L32.783 3.29401H33.724L34.665 3.21601H37.802L40.861 3.29401H41.802L42.665 3.37201L43.528 3.52901L44.155 3.68601L44.782 4.00001L45.331 4.39201L45.802 4.86301L45.88 4.94101L46.272 5.25501L46.586 5.72601L46.821 6.27501L46.978 6.82401L47.213 8.00101L47.3 9.17701V10.903ZM93.182 8.47101L93.1 7.44901L92.865 6.42901L92.473 5.48801L92.159 4.86101L91.767 4.23401L91.3 3.68601L90.829 3.21501L90.045 2.66601L89.261 2.19501L88.4 1.80401L86.988 1.33301L85.498 0.941011L84.083 0.784011L82.671 0.706011L81.259 0.627011L77.024 0.549011H71.3L69.729 0.784011L68.239 0.941011L66.67 1.25501L65.18 1.72601L64.239 2.11801L63.376 2.58901L62.513 3.21601L61.729 3.92201L61.023 4.70601L60.474 5.56901L60 6.51001L59.69 7.44901L59.455 8.46901L59.22 9.95901L59.14 11.449V12.076L59.062 13.488L59.14 14.9L59.297 15.841L59.532 16.782L59.846 17.723L60.238 18.35L60.709 18.977L61.18 19.526L61.729 19.997L62.513 20.546L63.376 21.017L64.239 21.409L65.651 21.801L67.141 22.115L68.631 22.272L70.121 22.35L71.611 22.428L75.847 22.506H80.083L81.573 22.428L83.063 22.35L84.553 22.193L86.043 21.879L87.455 21.408L88.318 21.016L89.181 20.545L89.965 19.996L90.514 19.525L90.985 18.976L91.456 18.427L91.848 17.8L92.319 16.859L92.633 15.839L92.868 14.819L93.025 13.329L93.103 11.839L93.181 11.212L93.259 9.80001L93.181 8.46701L93.182 8.47101ZM86.2 10.903L86.122 12.549L85.965 14.196V14.274L85.73 15.374L85.416 16.474L85.181 17.023L84.867 17.572L84.475 18.043L84.083 18.435L84 18.511L83.529 18.903L82.902 19.295L82.275 19.609L81.573 19.849L80.632 20.006L79.691 20.084H75.691L72.632 20.006H71.69L70.827 19.928L69.964 19.771L69.415 19.614L68.788 19.379L68.239 19.065L67.768 18.673L67.69 18.595L67.298 18.203L66.906 17.732L66.592 17.183L66.357 16.634L66.122 15.85L65.965 15.066L65.887 14.282V12.549L65.965 10.902L66.122 9.33301V9.17701L66.357 8.00001L66.749 6.82301L67.141 6.27401L67.455 5.72501L67.847 5.25401L68.239 4.78301V4.70601L68.788 4.31401L69.415 4.00001L70.042 3.68601L70.748 3.45101L71.689 3.29401L72.63 3.21601L73.571 3.13801H76.71L79.769 3.21601H80.71L81.573 3.29401L82.436 3.45101L83.063 3.60801L83.69 3.92201L84.239 4.31401L84.71 4.78501L84.788 4.86301L85.102 5.33401L85.416 5.80501L85.651 6.35401L85.808 6.90301L86.043 8.08001L86.121 9.25701V10.904L86.2 10.903ZM15.138 20.236C13.883 20.001 12.938 19.765 12.706 18.981C12.628 18.746 12.628 18.51 12.549 18.197V15.297C12.549 14.748 12.784 9.88501 12.784 9.88501L13.255 0.943011H1.177L1.02 3.05901C1.804 3.13701 2.589 3.21601 3.373 3.37301C4.628 3.60801 5.573 3.84401 5.805 4.62801C5.883 4.86301 5.883 5.09901 5.962 5.41201V8.86301C5.962 9.25501 5.805 11.922 5.727 13.726C5.649 14.51 5.335 17.883 5.256 18.197C5.177 18.511 5.099 18.746 5.021 18.981C4.707 19.844 3.688 20.081 2.433 20.236C1.6282 20.3839 0.816025 20.4884 0 20.549L0 22.667H17.413L17.491 20.549C16.7014 20.4881 15.9159 20.3843 15.138 20.236Z" fill="#BBBDBF"/>
<path d="M122.595 22.825H99.849V19.845H100.32C100.89 19.8832 101.462 19.8054 102.001 19.6163C102.54 19.4273 103.036 19.1309 103.457 18.745C103.986 18.1306 104.29 17.3549 104.32 16.545V8.07901H113.34V16.864C113.34 19.139 114.987 19.452 115.066 19.452C116.635 19.609 118.36 19.687 120.086 19.687C125.027 19.687 136.636 18.903 136.636 11.294C136.636 4.15601 121.263 3.60701 116.478 3.60701H101.261V0.471008H118.749C129.103 0.471008 146.437 1.88301 146.437 11.295C146.28 22.276 126.514 22.825 122.593 22.825H122.595Z" fill="#231F20"/>
<path d="M118.595 0.941C127.066 0.941 145.812 1.804 145.812 11.295C145.812 21.884 126.203 22.354 122.512 22.354H100.162V20.236C104.79 20.236 104.554 16.471 104.554 16.471V8.549H112.633V16.863C112.633 19.608 114.751 19.922 114.751 19.922C116.446 20.0879 118.148 20.1664 119.851 20.157C127.381 20.157 136.872 18.51 136.872 11.294C136.872 3.764 121.342 3.137 116.322 3.137H101.496V0.941H118.595ZM118.596 0H100.633V4.157H116.399C119.693 4.157 136.086 4.471 136.086 11.373C136.086 18.589 124.87 19.373 120.007 19.373C117.889 19.373 116.164 19.216 115.066 19.138C114.831 19.06 113.733 18.746 113.733 16.938V7.608H103.772V16.55C103.751 17.2381 103.503 17.8998 103.066 18.432C102.702 18.7748 102.268 19.036 101.795 19.1982C101.322 19.3605 100.819 19.4201 100.321 19.373H99.378V23.373H122.678C126.678 23.373 146.836 22.824 146.836 11.373C146.753 6.118 141.891 0 118.596 0Z" fill="#D0D2D3"/>
</svg>
