<svg width="100" height="14" viewBox="0 0 100 14" fill="none" xmlns="http://www.w3.org/2000/svg">
<path d="M0 0.0999756C0.175997 0.71895 0.507223 1.28269 0.962252 1.73772C1.41728 2.19275 1.98103 2.52398 2.6 2.69998H6.7L6.9 2.79998V13.1H9.4V2.79998L9.6 2.69998H13.7C14.3193 2.52467 14.8834 2.19368 15.3386 1.73854C15.7937 1.28341 16.1247 0.7193 16.3 0.0999756L0 0.0999756Z" fill="white"/>
<path d="M77.8 13.1C78.3645 12.9009 78.8658 12.5551 79.2524 12.0982C79.639 11.6412 79.8971 11.0896 80 10.5H68.7V0H66.2V13H77.8V13.1Z" fill="white"/>
<path d="M47.3 2.69998H56.3C56.939 2.54239 57.5251 2.21902 57.9991 1.76253C58.4732 1.30603 58.8184 0.732549 59 0.0999756L44.8 0.0999756V7.79998H56.4V10.5H47.3C46.6186 10.6946 45.9838 11.0254 45.4338 11.4723C44.8838 11.9192 44.43 12.4729 44.1 13.1H59V5.29998H47.3V2.69998Z" fill="white"/>
<path d="M85.4 5.30005V13.1H88V7.90005H97.1V13.1H99.7V5.30005H85.4Z" fill="white"/>
<path d="M25.2 2.69998H34.9C35.527 2.54026 36.0994 2.21449 36.557 1.75695C37.0145 1.29941 37.3403 0.727013 37.5 0.0999756L22.5 0.0999756C22.697 0.724408 23.0474 1.28952 23.519 1.7437C23.9906 2.19789 24.5686 2.52665 25.2 2.69998Z" fill="white"/>
<path d="M25.2 7.90005H34.9C35.527 7.74033 36.0994 7.41457 36.557 6.95703C37.0145 6.49949 37.3403 5.92709 37.5 5.30005H22.5C22.7127 5.91586 23.0683 6.47252 23.5376 6.92444C24.0069 7.37636 24.5766 7.71069 25.2 7.90005Z" fill="white"/>
<path d="M25.2 13.1H34.9C35.527 12.9403 36.0994 12.6145 36.557 12.157C37.0145 11.6994 37.3403 11.127 37.5 10.5H22.5C22.681 11.1329 23.0261 11.7066 23.5002 12.1632C23.9744 12.6198 24.5608 12.943 25.2 13.1Z" fill="white"/>
<path d="M87.7 2.69998H97.4C98.027 2.54026 98.5994 2.21449 99.057 1.75695C99.5145 1.29941 99.8403 0.727013 100 0.0999756L85 0.0999756C85.1497 0.748359 85.4846 1.33927 85.964 1.80085C86.4433 2.26244 87.0464 2.5748 87.7 2.69998Z" fill="white"/>
</svg>
