<svg width="203" height="26" viewBox="0 0 203 26" fill="none" xmlns="http://www.w3.org/2000/svg">
<path d="M109.63 10.863L109.512 9.86299L109.285 8.85099L108.94 7.85099L108.618 7.22399L108.234 6.61199L107.779 6.05499L107.269 5.54499L106.485 4.96499L105.701 4.47899L104.87 4.08699L103.442 3.60899L101.983 3.30899L100.54 3.14399L99.0969 3.07299L97.7089 3.04199L93.4579 3.00299H87.7169L86.1719 3.14399L84.6499 3.33199L83.1439 3.65399L81.6769 4.12499L80.7589 4.52499L79.8589 5.01099L79.0119 5.59899L78.2279 6.29899L77.5529 7.06799L76.9729 7.93099L76.5339 8.87199L76.1809 9.83699L75.9299 10.837L75.7099 12.327L75.6019 13.776V14.388L75.5389 15.776L75.5779 17.204L75.7029 18.177L75.9379 19.134L76.2909 20.06L76.6519 20.727L77.0909 21.347L77.5909 21.92L78.1399 22.43L78.9239 23.01L79.7789 23.473L80.6729 23.857L82.1239 24.281L83.5909 24.563L85.0659 24.751L86.5329 24.845L87.9999 24.884L92.2589 24.923H96.5259L97.9769 24.884L99.4439 24.813L100.919 24.64L102.409 24.311L103.852 23.856L104.715 23.495L105.546 23.048L106.33 22.507L106.879 22.044L107.373 21.526L107.828 20.969L108.22 20.369L108.683 19.412L109.036 18.432L109.263 17.412L109.451 15.912L109.545 14.445L109.584 13.825L109.647 12.382L109.63 10.863ZM102.665 13.216L102.571 14.902L102.414 16.541V16.612L102.214 17.734L101.845 18.824L101.602 19.373L101.312 19.891L100.959 20.369L100.583 20.777L100.528 20.824L100.018 21.248L99.4179 21.617L98.7749 21.899L98.0999 22.099L97.1819 22.264L96.2559 22.335H92.2239L89.1809 22.296H88.2399L87.3619 22.225L86.4909 22.092L85.8479 21.927L85.2359 21.692L84.6559 21.37L84.1699 21.001L84.1149 20.954L83.6989 20.538L83.3379 20.052L83.0379 19.511L82.7949 18.954L82.5679 18.17L82.4269 17.386L82.3559 16.602V14.892L82.4499 13.213L82.6499 11.644V11.506L82.9009 10.322L83.3169 9.14499L83.5989 8.62699L83.9209 8.10099L84.2969 7.60099L84.7019 7.17599L84.7569 7.12899L85.2669 6.72099L85.8669 6.36799L86.5179 6.08599L87.1999 5.88599L88.1179 5.72099L89.0589 5.64999L89.9769 5.61099H93.1219L96.2119 5.64999H97.1379L98.0379 5.72099L98.9379 5.87799L99.5889 6.06599L100.216 6.34799L100.789 6.71699L101.26 7.16399L101.307 7.21899L101.652 7.65799L101.942 8.16799L102.169 8.70899L102.349 9.28199L102.549 10.435L102.627 11.58V13.28L102.665 13.216Z" fill="#BBBDBF"/>
<path d="M148.535 10.863L148.417 9.86299L148.19 8.85099L147.837 7.85099L147.515 7.22399L147.123 6.62399L146.668 6.06699L146.158 5.55699L145.374 4.97699L144.59 4.49099L143.751 4.09899L142.323 3.62099L140.864 3.32099L139.444 3.14799L138.001 3.07699L136.589 3.03799L132.338 2.99899H126.589L125.075 3.14799L123.593 3.33599L122.024 3.64999L120.557 4.12099L119.671 4.53699L118.771 5.02299L117.924 5.61099L117.14 6.31099L116.458 7.09499L115.878 7.95799L115.407 8.89099L115.054 9.85599L114.803 10.856L114.583 12.346L114.483 13.813V14.425L114.42 15.813L114.459 17.241L114.585 18.214L114.82 19.171L115.173 20.097L115.534 20.764L115.965 21.384L116.465 21.957L117.014 22.467L117.798 23.047L118.661 23.51L119.555 23.894L120.998 24.318L122.465 24.6L123.94 24.788L125.407 24.882L126.874 24.921L131.133 24.96H135.4L136.851 24.921L138.318 24.85L139.793 24.677L141.275 24.377L142.718 23.922L143.573 23.561L144.404 23.114L145.188 22.573L145.737 22.11L146.231 21.592L146.686 21.035L147.078 20.435L147.541 19.478L147.894 18.498L148.121 17.478L148.309 15.978L148.403 14.511L148.442 13.891L148.505 12.448L148.535 10.863ZM141.57 13.216L141.476 14.902L141.296 16.533V16.604L141.096 17.726L140.743 18.826L140.508 19.375L140.218 19.893L139.865 20.371L139.489 20.779L139.434 20.826L138.924 21.25L138.324 21.619L137.712 21.964L137.037 22.164L136.111 22.329L135.185 22.4H131.153L128.11 22.361H127.184L126.306 22.29L125.435 22.157L124.792 21.992L124.18 21.757L123.6 21.435L123.115 21.06L123.06 21.013L122.644 20.597L122.283 20.111L121.977 19.57L121.742 19.013L121.515 18.229L121.374 17.445L121.303 16.661V16.59L121.24 14.904L121.334 13.225L121.534 11.656V11.523L121.785 10.339L122.201 9.16199L122.468 8.60499L122.79 8.07899L123.166 7.57899L123.582 7.15499L123.637 7.10799L124.147 6.69999L124.747 6.34699L125.398 6.06499L126.08 5.86499L126.998 5.69999L127.939 5.62899L128.857 5.58999H132.002L135.102 5.62899H136.028L136.928 5.69999L137.828 5.85699L138.479 6.04499L139.106 6.32699L139.679 6.69599L140.15 7.14299L140.197 7.19799L140.542 7.63699L140.832 8.14699L141.059 8.68799L141.232 9.26099L141.432 10.414L141.51 11.559V13.259L141.57 13.216Z" fill="#BBBDBF"/>
<path d="M70.4829 22.594C69.2589 22.382 68.2479 22.139 68.0119 21.315C67.9409 21.0586 67.8937 20.7961 67.8709 20.531V17.663C67.8709 17.145 68.1139 12.243 68.1139 12.243L68.5849 3.293H56.5449L56.4349 5.419C57.2189 5.482 58.0039 5.584 58.7879 5.709C60.0119 5.921 61.0229 6.164 61.2589 6.988C61.3296 7.24452 61.3768 7.50694 61.3999 7.772V11.194C61.3999 11.563 61.2669 14.277 61.1649 16.081C61.1179 16.865 60.7569 20.238 60.6939 20.536C60.6437 20.8033 60.57 21.0656 60.4739 21.32C60.1519 22.144 59.1169 22.387 57.8739 22.599C57.0899 22.732 56.3049 22.826 55.4659 22.899L55.3529 25.013H72.7529L72.8629 22.887C72.0647 22.8339 71.2701 22.7361 70.4829 22.594Z" fill="#BBBDBF"/>
<path d="M2.01691 24.527C1.80898 24.527 1.60957 24.4444 1.46254 24.2974C1.31551 24.1503 1.23291 23.9509 1.23291 23.743V23.217C1.23291 23.0091 1.31551 22.8096 1.46254 22.6626C1.60957 22.5156 1.80898 22.433 2.01691 22.433C3.72393 22.4194 5.40159 21.9875 6.90291 21.175C7.0078 21.0947 7.09574 20.9944 7.16165 20.8799C7.22756 20.7654 7.27013 20.639 7.28691 20.508C7.59048 17.8113 7.72675 15.0985 7.69491 12.385C7.68483 12.2812 7.69556 12.1764 7.72647 12.0769C7.75738 11.9773 7.80784 11.8848 7.87491 11.805C7.94569 11.7258 8.03293 11.663 8.13053 11.621C8.22812 11.579 8.33371 11.5589 8.43991 11.562H28.6249C30.3739 11.562 39.0799 11.362 39.0799 7.26199C39.0799 2.78299 27.3149 2.73599 26.7729 2.73599H4.18891C4.00215 2.735 3.81873 2.68648 3.65591 2.59499C3.00787 2.25299 2.29356 2.05513 1.56191 2.01499C1.3869 2.00548 1.22169 1.93121 1.09841 1.80664C0.975133 1.68206 0.902595 1.51609 0.894909 1.34099V1.16099C0.892198 1.08056 0.905376 1.00039 0.933689 0.925059C0.962002 0.849729 1.00489 0.780723 1.05991 0.721991C1.12563 0.651369 1.20588 0.595843 1.29514 0.559242C1.3844 0.522642 1.48053 0.505838 1.57691 0.509991L27.1159 0.454991C31.1132 0.453666 35.1046 0.763266 39.0539 1.38099C45.6429 2.51799 48.9839 4.58099 48.9839 7.50699C48.9839 13.947 32.3709 14.692 19.8769 14.692H18.5899C18.4099 14.692 17.8059 14.786 17.8059 15.72C17.8059 17.179 17.9939 19.963 17.9939 19.995C17.999 20.2724 18.0325 20.5485 18.0939 20.819C18.4859 21.384 19.8119 21.729 20.8389 21.964C22.4903 22.2583 24.1619 22.4255 25.8389 22.464C26.0468 22.464 26.2463 22.5466 26.3933 22.6936C26.5403 22.8406 26.6229 23.0401 26.6229 23.248V23.719C26.6307 23.8272 26.6171 23.936 26.5828 24.0389C26.5484 24.1419 26.4941 24.2371 26.4229 24.319C26.3473 24.3983 26.2559 24.461 26.1547 24.5028C26.0534 24.5447 25.9445 24.5648 25.8349 24.562L2.01691 24.527Z" fill="#EC1C24"/>
<path d="M27.1159 0.9C30.2529 0.9 48.5519 1.167 48.5519 7.5C48.5519 14.065 28.4519 14.238 19.8919 14.238H18.5919C18.4095 14.2448 18.2306 14.29 18.0669 14.3709C17.9032 14.4517 17.7585 14.5662 17.6423 14.7069C17.526 14.8477 17.4408 15.0114 17.3923 15.1874C17.3439 15.3633 17.3331 15.5476 17.3609 15.728C17.3609 17.21 17.5489 20.018 17.5489 20.018C17.5567 20.364 17.6122 20.7072 17.7139 21.038C17.8389 21.218 18.1689 21.877 20.7969 22.364C22.4729 22.6649 24.1696 22.8354 25.8719 22.874C25.9178 22.8704 25.9639 22.8769 26.007 22.8931C26.05 22.9093 26.089 22.9347 26.1212 22.9676C26.1533 23.0005 26.1778 23.0401 26.193 23.0835C26.2082 23.127 26.2136 23.1732 26.2089 23.219C26.2089 23.595 26.2089 23.713 26.2089 23.713C26.2134 23.7591 26.208 23.8057 26.1928 23.8494C26.1777 23.8932 26.1534 23.9333 26.1214 23.9668C26.0894 24.0003 26.0505 24.0265 26.0075 24.0436C25.9644 24.0607 25.9182 24.0684 25.8719 24.066H2.01592C1.93068 24.0639 1.84976 24.0281 1.7909 23.9664C1.73204 23.9047 1.70004 23.8222 1.70192 23.737V23.211C1.70354 23.126 1.73649 23.0446 1.79444 22.9824C1.85239 22.9202 1.93125 22.8816 2.01592 22.874C3.81041 22.8658 5.57605 22.4217 7.16092 21.58C7.31965 21.4645 7.45345 21.3182 7.55432 21.1498C7.65518 20.9814 7.72103 20.7944 7.74792 20.6C8.05291 17.8841 8.18918 15.1518 8.15592 12.419C8.15592 12.419 8.10892 12.05 8.45592 12.05H28.6289C30.8409 12.05 39.5289 11.768 39.5289 7.297C39.5289 2.442 27.9829 2.356 26.7749 2.356H4.18892C4.07865 2.35439 3.97061 2.3248 3.87492 2.27C3.18336 1.87154 2.41161 1.6324 1.61592 1.57C1.61592 1.57 1.34792 1.569 1.34792 1.341V1.161C1.34765 1.1323 1.35357 1.10388 1.36526 1.07767C1.37696 1.05146 1.39416 1.02808 1.41569 1.0091C1.43723 0.990131 1.46259 0.976015 1.49007 0.967715C1.51754 0.959414 1.54648 0.957124 1.57492 0.961L26.6759 0.91H27.1149M27.1149 0H26.6479L1.57692 0.055C1.41636 0.0521624 1.25704 0.0836093 1.1096 0.147241C0.962159 0.210873 0.82999 0.305226 0.721916 0.424C0.530702 0.638936 0.432211 0.920748 0.447916 1.208V1.4C0.458569 1.68409 0.574525 1.95405 0.773222 2.15737C0.97192 2.36069 1.23915 2.48282 1.52292 2.5C2.1728 2.53583 2.80819 2.70609 3.38892 3H3.43592C3.67527 3.13406 3.94559 3.20302 4.21992 3.2H26.8099C31.5709 3.2 38.6619 4.282 38.6619 7.279C38.6619 11.02 29.6809 11.13 28.6619 11.13H8.43992C8.26378 11.1238 8.08849 11.1573 7.92701 11.2279C7.76552 11.2985 7.62196 11.4045 7.50692 11.538C7.29203 11.7906 7.18437 12.1171 7.20692 12.448C7.23924 15.131 7.10565 17.8135 6.80692 20.48C6.78844 20.6123 6.72485 20.7342 6.62692 20.825C5.20398 21.5709 3.62152 21.9611 2.01492 21.962C1.85326 21.96 1.69279 21.9899 1.54268 22.0499C1.39257 22.11 1.25575 22.199 1.14005 22.3119C1.02434 22.4248 0.932016 22.5594 0.868336 22.708C0.804657 22.8566 0.770874 23.0163 0.768916 23.178V23.743C0.762756 24.0632 0.884021 24.3728 1.10605 24.6036C1.32808 24.8345 1.63269 24.9677 1.95292 24.974H25.8839C26.0552 24.9774 26.2254 24.945 26.3834 24.8789C26.5415 24.8128 26.6841 24.7144 26.8019 24.59C26.9158 24.4626 27.0029 24.3137 27.0582 24.1521C27.1135 23.9905 27.1359 23.8194 27.1239 23.649V23.225C27.1304 23.0594 27.1029 22.8943 27.0432 22.7398C26.9835 22.5852 26.8929 22.4445 26.7769 22.3262C26.6609 22.2079 26.5219 22.1146 26.3685 22.052C26.2151 21.9894 26.0506 21.9587 25.8849 21.962C24.2458 21.9211 22.6121 21.7559 20.9979 21.468C20.1235 21.3983 19.2826 21.1008 18.5589 20.605C18.5258 20.3947 18.5048 20.1827 18.4959 19.97C18.4959 19.97 18.3309 17.154 18.3079 15.703C18.2899 15.5381 18.3287 15.3719 18.4179 15.232C18.4809 15.1794 18.5569 15.1449 18.6379 15.132H19.9169C33.6819 15.132 49.4789 14.261 49.4789 7.492C49.4379 0.541 32.3389 0 27.1149 0Z" fill="#D0D2D3"/>
<path d="M177.963 25.193H155.217V22.193H155.672C156.24 22.2411 156.812 22.1712 157.352 21.9875C157.892 21.8039 158.388 21.5106 158.809 21.126C159.354 20.5227 159.655 19.7388 159.656 18.926V10.44H168.668V19.233C168.668 21.515 170.323 21.833 170.386 21.853C172.054 22.0206 173.729 22.1044 175.406 22.104C180.379 22.104 191.948 21.32 191.948 13.68C191.948 6.53499 176.548 5.98498 171.821 5.98498H156.535V2.84698H173.979C184.325 2.84698 201.679 4.25898 201.679 13.695C201.674 24.636 181.917 25.193 177.963 25.193Z" fill="#EC1C24"/>
<path d="M173.979 3.26301C182.458 3.26301 201.243 4.14901 201.243 13.656C201.243 24.237 181.634 24.739 177.979 24.739H155.664V22.644C160.264 22.644 160.064 18.903 160.064 18.903V10.895H168.174V19.233C168.174 21.955 170.268 22.292 170.268 22.292C171.959 22.4644 173.658 22.5508 175.358 22.551C182.872 22.551 192.347 20.872 192.347 13.68C192.363 6.13401 176.801 5.49101 171.781 5.49101H156.958V3.31001H170.127C170.645 3.31001 172.041 3.26301 173.978 3.26301M173.978 2.36301H156.056V6.45101H171.806C175.092 6.45101 191.486 6.80401 191.486 13.698C191.486 20.891 180.238 21.667 175.399 21.667C173.742 21.6668 172.086 21.583 170.438 21.416C170.191 21.361 169.109 21.023 169.109 19.251V9.99301H159.171V18.958C159.165 19.651 158.906 20.3179 158.442 20.833C158.065 21.1658 157.625 21.4188 157.147 21.5765C156.67 21.7343 156.166 21.7937 155.665 21.751H154.765V25.673H177.958C181.99 25.673 202.124 25.093 202.124 13.688C202.124 8.53501 197.237 2.39301 173.981 2.39301L173.978 2.36301Z" fill="#D0D2D3"/>
</svg>
