<?xml version="1.0" standalone="no"?>
<!DOCTYPE svg PUBLIC "-//W3C//DTD SVG 20010904//EN"
 "http://www.w3.org/TR/2001/REC-SVG-20010904/DTD/svg10.dtd">
<svg version="1.0" xmlns="http://www.w3.org/2000/svg"
 width="700.000000pt" height="700.000000pt" viewBox="0 0 700.000000 700.000000"
 preserveAspectRatio="xMidYMid meet">
<metadata>
Created by potrace 1.14, written by Peter Selinger 2001-2017
</metadata>
<g transform="translate(0.000000,700.000000) scale(0.100000,-0.100000)"
fill="#000000" stroke="none">
<path d="M3188 6995 c-1 -1 -71 -6 -154 -9 -84 -4 -162 -9 -175 -11 -13 -2
-62 -6 -109 -10 -47 -3 -101 -7 -120 -9 -19 -2 -65 -7 -102 -11 -37 -3 -76 -8
-87 -10 -11 -2 -46 -6 -78 -10 -56 -6 -99 -12 -154 -21 -15 -2 -46 -6 -68 -9
-74 -9 -332 -55 -481 -85 -397 -81 -754 -177 -1155 -311 -173 -58 -492 -175
-503 -184 -7 -6 173 -383 192 -402 2 -2 48 15 102 37 285 119 723 274 891 315
10 3 95 25 188 50 153 41 506 118 595 131 19 3 71 11 115 19 44 8 116 19 160
25 44 6 91 12 105 14 14 3 50 7 80 11 30 3 69 7 85 9 17 3 64 7 105 11 41 3
91 8 110 10 19 2 82 7 140 10 58 3 141 8 185 11 99 7 755 7 885 0 274 -16 307
-18 531 -41 53 -5 127 -13 179 -20 19 -3 53 -8 75 -10 22 -3 51 -8 65 -10 14
-3 43 -7 65 -11 88 -12 366 -64 501 -94 55 -12 106 -23 114 -25 51 -11 209
-53 360 -96 308 -88 565 -180 966 -345 10 -5 125 210 177 333 19 46 23 64 14
71 -31 23 -447 170 -732 258 -294 91 -772 211 -995 250 -14 2 -36 7 -50 9 -61
12 -81 16 -190 34 -63 11 -135 22 -160 26 -25 3 -56 8 -70 10 -14 2 -45 7 -70
10 -25 4 -56 8 -70 10 -14 2 -54 7 -90 10 -36 4 -72 8 -81 10 -8 2 -53 6 -100
10 -46 4 -91 8 -99 10 -8 1 -69 6 -135 10 -66 4 -138 9 -160 11 -49 5 -792 14
-797 9z"/>
<path d="M2697 6314 c-1 -1 -47 -5 -102 -8 -55 -4 -113 -9 -130 -11 -16 -2
-57 -6 -90 -9 -33 -3 -69 -8 -80 -10 -11 -2 -42 -7 -70 -10 -44 -6 -120 -17
-210 -32 -16 -2 -52 -9 -80 -14 -27 -5 -66 -12 -85 -15 -19 -4 -73 -15 -120
-25 -47 -10 -96 -21 -110 -23 -59 -11 -295 -72 -435 -112 -197 -58 -412 -132
-605 -210 -220 -90 -271 -114 -263 -128 3 -7 27 -39 52 -72 109 -144 324 -328
518 -444 78 -46 343 -181 356 -181 3 0 8 19 12 43 53 346 322 466 1050 471
l210 1 17 -95 c9 -52 19 -111 23 -130 3 -19 7 -42 10 -50 2 -8 6 -33 9 -55 4
-22 8 -51 11 -65 2 -14 7 -38 10 -55 3 -16 21 -118 40 -225 34 -191 43 -240
51 -290 3 -14 9 -47 14 -75 6 -27 12 -63 15 -80 2 -16 7 -43 10 -60 12 -66 37
-203 45 -250 9 -50 37 -209 45 -255 25 -136 45 -245 50 -280 3 -19 8 -42 10
-50 2 -8 6 -32 9 -52 5 -34 29 -167 40 -228 8 -40 47 -262 52 -295 3 -16 11
-64 19 -105 8 -41 17 -91 20 -110 3 -19 10 -57 15 -85 5 -27 12 -63 15 -80 2
-16 16 -93 30 -170 13 -77 27 -153 30 -170 2 -16 7 -41 10 -55 3 -14 14 -77
25 -140 11 -63 22 -128 25 -145 3 -16 8 -41 10 -55 3 -14 7 -38 11 -53 3 -16
7 -38 9 -50 1 -12 10 -62 19 -112 9 -49 18 -101 21 -115 8 -46 86 -483 111
-625 13 -77 27 -151 29 -165 3 -14 14 -74 24 -135 11 -60 29 -162 40 -225 11
-63 23 -128 26 -145 2 -16 7 -41 10 -55 3 -14 8 -47 12 -73 7 -55 18 -51 27 8
3 22 8 50 10 63 3 13 14 76 25 140 12 64 23 128 26 142 3 14 7 41 10 60 3 19
7 46 10 60 3 14 16 90 30 170 14 80 28 152 30 160 2 8 6 31 9 50 3 19 21 125
41 235 20 110 51 290 70 400 19 110 37 211 40 225 10 52 27 146 32 175 2 17
13 77 23 135 11 58 22 119 25 135 2 17 7 40 9 51 2 12 7 37 10 55 7 42 72 415
121 689 20 113 38 214 40 225 2 11 10 58 19 105 9 47 18 103 22 125 3 22 14
85 25 140 10 55 21 118 24 140 4 22 8 47 10 55 2 8 7 31 10 50 3 19 17 98 30
175 14 77 27 154 30 170 3 17 7 41 10 55 3 14 7 39 10 55 3 17 7 41 10 55 3
14 7 41 10 60 3 19 10 58 15 85 11 56 18 94 26 144 3 18 7 41 9 50 1 9 6 36
10 61 4 25 9 54 12 65 2 11 6 31 8 45 5 32 33 189 39 216 2 12 7 45 11 75 4
30 9 57 11 60 2 4 6 24 9 45 3 22 10 62 15 89 6 28 15 76 21 109 l11 58 226
-6 c125 -4 247 -9 272 -11 128 -11 184 -18 273 -35 314 -60 448 -178 493 -432
3 -21 9 -38 12 -38 3 0 69 31 146 69 240 118 435 252 594 410 74 73 159 173
186 219 5 8 -13 22 -61 43 -92 42 -368 153 -418 168 -22 7 -49 16 -60 21 -46
21 -417 135 -474 146 -14 3 -27 7 -31 9 -9 6 -347 83 -395 91 -22 3 -43 8 -46
10 -3 2 -21 6 -40 9 -204 35 -259 44 -289 49 -19 2 -57 8 -85 12 -27 3 -58 8
-68 10 -10 2 -48 6 -85 9 -37 4 -78 8 -92 10 -23 4 -72 8 -246 20 l-71 5 -119
-146 c-65 -81 -131 -160 -145 -178 -15 -17 -122 -148 -239 -291 -117 -143
-215 -261 -219 -262 -3 -1 -21 17 -40 40 -18 23 -48 60 -66 82 -19 22 -80 96
-136 165 -56 69 -117 143 -135 165 -18 22 -103 126 -188 230 -155 189 -156
190 -196 190 -23 1 -42 0 -43 -1z"/>
</g>
</svg>
